<svg id="svg" version="1.1" xmlns="http://www.w3.org/2000/svg" xmlns:xlink="http://www.w3.org/1999/xlink" width="400" height="239.32267168391346" viewBox="0, 0, 400,239.32267168391346"><g id="svgg"><path id="path0" d="M197.965 45.292 C 197.965 72.264,198.001 75.127,198.344 75.259 C 198.552 75.339,211.802 75.404,227.787 75.404 L 256.852 75.404 256.855 85.278 C 256.857 90.709,256.924 95.395,257.003 95.691 L 257.147 96.230 267.532 96.230 C 277.816 96.230,277.917 96.225,277.917 95.743 C 277.917 95.205,257.602 74.804,256.819 74.556 C 256.574 74.478,256.373 74.341,256.373 74.251 C 256.373 74.161,256.047 73.764,255.648 73.369 C 255.249 72.974,254.468 72.181,253.912 71.606 C 253.357 71.031,252.761 70.439,252.588 70.289 C 252.415 70.140,251.822 69.548,251.271 68.973 C 250.720 68.398,250.128 67.806,249.955 67.656 C 249.782 67.507,249.189 66.915,248.638 66.340 C 248.087 65.765,247.497 65.173,247.328 65.023 C 247.158 64.874,246.727 64.453,246.370 64.088 C 246.013 63.723,245.423 63.131,245.058 62.772 C 244.693 62.412,244.100 61.820,243.741 61.455 C 242.811 60.511,241.876 59.591,241.050 58.809 C 240.657 58.436,240.335 58.040,240.335 57.927 C 240.335 57.814,240.118 57.653,239.853 57.569 C 239.588 57.485,239.432 57.316,239.508 57.194 C 239.583 57.072,239.547 56.972,239.427 56.972 C 239.103 56.972,237.941 55.841,237.941 55.525 C 237.941 55.182,235.612 52.918,235.437 53.093 C 235.366 53.164,235.308 53.066,235.308 52.876 C 235.308 52.475,234.458 51.678,234.251 51.885 C 234.174 51.962,234.111 51.915,234.111 51.780 C 234.111 51.429,232.992 50.271,232.820 50.444 C 232.740 50.523,232.675 50.433,232.675 50.243 C 232.675 49.841,231.825 49.045,231.618 49.252 C 231.541 49.329,231.478 49.279,231.478 49.141 C 231.478 48.803,229.186 46.417,229.020 46.583 C 228.948 46.656,228.820 46.497,228.735 46.230 C 228.650 45.964,228.370 45.678,228.111 45.596 C 227.853 45.514,227.684 45.374,227.737 45.285 C 227.859 45.076,226.547 43.790,226.381 43.956 C 226.312 44.025,226.186 43.864,226.102 43.597 C 226.017 43.331,225.736 43.045,225.478 42.963 C 225.220 42.881,225.050 42.741,225.101 42.652 C 225.151 42.563,224.975 42.274,224.708 42.011 C 224.441 41.747,224.310 41.683,224.417 41.868 C 224.547 42.094,224.519 42.148,224.334 42.034 C 224.182 41.940,224.057 41.701,224.057 41.504 C 224.057 41.306,223.957 41.206,223.835 41.282 C 223.713 41.357,223.546 41.208,223.464 40.949 C 223.382 40.691,223.103 40.412,222.845 40.330 C 222.586 40.248,222.417 40.108,222.467 40.019 C 222.518 39.929,222.342 39.641,222.075 39.378 C 221.808 39.114,221.677 39.050,221.784 39.235 C 221.913 39.461,221.886 39.515,221.701 39.400 C 221.549 39.307,221.424 39.123,221.424 38.993 C 221.424 38.691,220.237 37.582,219.913 37.582 C 219.779 37.582,219.732 37.519,219.808 37.443 C 219.990 37.261,219.206 36.432,218.971 36.557 C 218.872 36.610,218.791 36.544,218.791 36.411 C 218.791 36.079,216.459 33.771,216.292 33.937 C 216.218 34.011,216.158 33.953,216.158 33.808 C 216.158 33.599,201.813 19.099,198.711 16.173 L 197.965 15.470 197.965 45.292 M146.333 79.401 C 145.443 79.574,143.924 81.294,143.749 82.328 C 143.103 86.155,147.504 88.535,150.214 85.824 C 153.163 82.876,150.567 78.579,146.333 79.401 " stroke="none" fill="#dcdcbd" fill-rule="evenodd"></path><path id="path1" d="M227.350 104.720 C 243.510 120.910,256.831 134.201,256.952 134.256 C 257.149 134.347,256.971 75.683,256.774 75.485 C 256.732 75.444,243.484 75.381,227.333 75.347 L 197.968 75.284 227.350 104.720 M144.585 85.779 C 144.914 86.153,145.398 86.570,145.661 86.706 C 146.165 86.966,146.151 86.950,144.824 85.815 L 143.987 85.099 144.585 85.779 " stroke="none" fill="#b4b49c" fill-rule="evenodd"></path><path id="path2" d="M138.519 90.305 C 138.366 104.750,138.299 134.292,138.420 134.290 C 138.453 134.289,151.781 121.040,168.038 104.846 L 197.597 75.404 168.137 75.404 L 138.678 75.404 138.519 90.305 M149.324 79.331 C 151.425 80.424,152.311 82.971,151.289 84.975 C 149.701 88.087,145.500 88.088,143.831 84.977 C 142.073 81.698,146.038 77.622,149.324 79.331 M73.250 157.271 C 73.250 157.403,72.711 157.510,72.053 157.510 C 71.394 157.510,70.856 157.612,70.856 157.735 C 70.856 157.859,70.371 158.033,69.779 158.121 C 69.186 158.210,68.701 158.370,68.701 158.476 C 68.701 158.582,68.378 158.740,67.983 158.827 C 67.588 158.914,67.265 159.084,67.265 159.205 C 67.265 159.326,67.061 159.425,66.811 159.425 C 66.562 159.425,65.861 159.883,65.254 160.443 C 64.647 161.002,64.016 161.579,63.852 161.724 C 63.136 162.358,62.276 163.476,62.115 163.984 C 62.019 164.287,61.738 164.752,61.491 165.018 C 61.244 165.283,61.041 165.615,61.040 165.754 C 61.039 165.894,60.870 166.331,60.665 166.724 C 60.460 167.118,60.229 168.330,60.152 169.417 C 60.075 170.505,59.921 171.394,59.809 171.394 C 59.697 171.394,59.605 171.987,59.605 172.711 C 59.605 173.435,59.697 174.028,59.809 174.028 C 59.921 174.028,60.081 174.909,60.164 175.986 C 60.247 177.063,60.409 178.005,60.524 178.080 C 60.639 178.155,60.807 178.621,60.898 179.114 C 60.989 179.608,61.166 180.012,61.292 180.012 C 61.417 180.012,61.520 180.227,61.520 180.491 C 61.520 180.754,61.628 180.969,61.759 180.969 C 61.891 180.969,61.999 181.134,61.999 181.336 C 61.999 181.538,62.160 181.765,62.358 181.840 C 62.555 181.916,62.717 182.127,62.717 182.309 C 62.717 182.747,64.918 184.945,65.561 185.150 C 65.840 185.238,66.068 185.411,66.068 185.534 C 66.068 185.657,66.230 185.757,66.427 185.757 C 66.625 185.757,66.786 185.856,66.786 185.977 C 66.786 186.099,67.110 186.269,67.504 186.355 C 67.899 186.442,68.223 186.607,68.223 186.723 C 68.223 186.838,68.627 187.007,69.120 187.097 C 69.614 187.188,70.095 187.381,70.189 187.527 C 70.440 187.916,80.146 187.894,80.387 187.504 C 80.485 187.345,81.019 187.143,81.575 187.054 C 82.131 186.965,82.585 186.810,82.585 186.710 C 82.585 186.609,82.855 186.459,83.184 186.377 C 83.513 186.294,83.782 186.121,83.782 185.992 C 83.782 185.863,83.892 185.757,84.026 185.757 C 84.381 185.757,87.373 182.709,87.373 182.348 C 87.373 182.180,87.583 181.911,87.840 181.751 C 88.097 181.590,88.378 181.080,88.465 180.616 C 88.552 180.152,88.711 179.773,88.819 179.773 C 88.926 179.773,89.088 179.180,89.179 178.456 C 89.269 177.732,89.445 177.139,89.570 177.139 C 89.695 177.139,89.763 176.789,89.722 176.361 L 89.647 175.583 85.458 175.583 C 81.296 175.583,81.268 175.587,81.192 176.122 C 81.150 176.418,81.015 176.661,80.893 176.661 C 80.770 176.661,80.670 176.822,80.670 177.020 C 80.670 177.475,78.868 179.294,78.416 179.294 C 78.230 179.294,78.032 179.428,77.977 179.593 C 77.846 179.987,73.073 180.017,72.822 179.625 C 72.728 179.478,72.409 179.283,72.113 179.190 C 71.816 179.098,71.574 178.922,71.574 178.799 C 71.574 178.676,71.436 178.576,71.268 178.576 C 70.889 178.576,70.240 177.838,70.026 177.165 C 69.938 176.888,69.766 176.661,69.643 176.661 C 69.520 176.661,69.420 176.508,69.420 176.322 C 69.420 176.135,69.285 175.938,69.120 175.883 C 68.901 175.810,68.821 174.932,68.821 172.592 C 68.821 170.251,68.901 169.373,69.120 169.300 C 69.285 169.245,69.420 169.047,69.420 168.861 C 69.420 168.674,69.520 168.522,69.643 168.522 C 69.766 168.522,69.938 168.295,70.026 168.017 C 70.214 167.425,70.875 166.607,71.165 166.607 C 71.277 166.607,71.530 166.445,71.728 166.248 C 71.925 166.050,72.288 165.889,72.534 165.889 C 72.781 165.889,73.048 165.781,73.130 165.649 C 73.211 165.518,73.595 165.410,73.982 165.410 C 74.369 165.410,74.686 165.302,74.686 165.171 C 74.686 165.039,75.009 164.931,75.404 164.931 C 75.799 164.931,76.122 165.039,76.122 165.171 C 76.122 165.302,76.499 165.410,76.960 165.410 C 77.421 165.410,77.798 165.506,77.798 165.623 C 77.798 165.741,78.077 165.907,78.419 165.993 C 79.186 166.185,80.670 167.592,80.670 168.127 C 80.670 168.344,80.778 168.522,80.910 168.522 C 81.041 168.522,81.149 168.683,81.149 168.881 C 81.149 169.187,81.787 169.240,85.458 169.240 C 89.128 169.240,89.767 169.187,89.767 168.881 C 89.767 168.683,89.674 168.522,89.561 168.522 C 89.448 168.522,89.286 167.855,89.201 167.039 C 89.116 166.224,88.947 165.495,88.827 165.421 C 88.706 165.346,88.534 164.990,88.443 164.630 C 88.353 164.269,88.182 163.974,88.065 163.974 C 87.948 163.974,87.852 163.812,87.852 163.615 C 87.852 163.417,87.751 163.256,87.628 163.256 C 87.506 163.256,87.329 163.017,87.237 162.725 C 87.045 162.120,85.148 160.144,84.759 160.144 C 84.617 160.144,84.500 160.038,84.500 159.909 C 84.500 159.780,84.231 159.606,83.902 159.524 C 83.573 159.441,83.303 159.289,83.303 159.186 C 83.303 159.083,83.008 158.925,82.648 158.834 C 82.287 158.743,81.923 158.558,81.839 158.423 C 81.756 158.287,81.189 158.120,80.580 158.052 C 79.971 157.983,79.473 157.833,79.473 157.719 C 79.473 157.604,78.989 157.510,78.396 157.510 C 77.804 157.510,77.319 157.403,77.319 157.271 C 77.319 157.130,76.481 157.032,75.284 157.032 C 74.087 157.032,73.250 157.130,73.250 157.271 M110.832 157.510 C 110.832 157.774,110.733 157.989,110.611 157.989 C 110.490 157.989,110.320 158.312,110.233 158.707 C 110.147 159.102,109.985 159.425,109.874 159.425 C 109.764 159.425,109.602 159.749,109.515 160.144 C 109.429 160.539,109.263 160.862,109.148 160.862 C 109.033 160.862,108.868 161.239,108.781 161.700 C 108.695 162.160,108.528 162.537,108.411 162.537 C 108.294 162.537,108.199 162.753,108.199 163.016 C 108.199 163.279,108.091 163.495,107.959 163.495 C 107.828 163.495,107.716 163.630,107.712 163.794 C 107.707 163.959,107.496 164.524,107.241 165.051 C 106.987 165.577,106.775 166.143,106.771 166.308 C 106.766 166.472,106.663 166.607,106.542 166.607 C 106.421 166.607,106.251 166.930,106.164 167.325 C 106.077 167.720,105.933 168.043,105.844 168.043 C 105.652 168.043,105.177 169.096,104.955 170.018 C 104.867 170.380,104.708 170.676,104.601 170.676 C 104.494 170.676,104.336 170.999,104.249 171.394 C 104.162 171.789,104.004 172.113,103.898 172.113 C 103.791 172.113,103.633 172.490,103.547 172.950 C 103.460 173.411,103.287 173.788,103.161 173.788 C 103.035 173.788,102.932 173.950,102.932 174.147 C 102.932 174.345,102.826 174.506,102.696 174.506 C 102.566 174.506,102.390 174.937,102.306 175.464 C 102.222 175.990,102.068 176.421,101.963 176.421 C 101.859 176.421,101.703 176.744,101.616 177.139 C 101.529 177.534,101.367 177.858,101.257 177.858 C 101.146 177.858,100.984 178.181,100.898 178.576 C 100.811 178.971,100.666 179.294,100.576 179.294 C 100.398 179.294,99.581 181.063,99.581 181.450 C 99.581 181.581,99.483 181.688,99.363 181.688 C 99.243 181.688,99.072 182.118,98.983 182.645 C 98.894 183.172,98.731 183.603,98.622 183.603 C 98.512 183.603,98.351 183.926,98.265 184.321 C 98.178 184.716,98.008 185.039,97.886 185.039 C 97.765 185.039,97.666 185.200,97.666 185.398 C 97.666 185.595,97.558 185.757,97.427 185.757 C 97.295 185.757,97.187 186.242,97.187 186.834 L 97.187 187.911 101.596 187.911 C 106.653 187.911,106.698 187.902,106.902 186.811 C 106.986 186.363,107.139 185.996,107.241 185.996 C 107.344 185.996,107.498 185.619,107.584 185.159 L 107.742 184.321 112.997 184.321 C 117.509 184.321,118.253 184.372,118.253 184.680 C 118.253 184.877,118.360 185.039,118.492 185.039 C 118.624 185.039,118.731 185.254,118.731 185.518 C 118.731 185.781,118.827 185.996,118.944 185.996 C 119.061 185.996,119.226 186.363,119.310 186.811 C 119.514 187.901,119.566 187.911,124.526 187.911 L 128.844 187.911 128.733 186.573 C 128.672 185.837,128.506 185.162,128.364 185.074 C 128.221 184.986,128.031 184.619,127.940 184.259 C 127.850 183.898,127.680 183.603,127.562 183.603 C 127.445 183.603,127.349 183.408,127.349 183.170 C 127.349 182.931,127.191 182.528,126.997 182.272 C 126.804 182.016,126.643 181.619,126.638 181.388 C 126.634 181.158,126.535 180.969,126.418 180.969 C 126.301 180.969,126.135 180.592,126.048 180.132 C 125.962 179.671,125.797 179.294,125.681 179.294 C 125.566 179.294,125.401 178.971,125.314 178.576 C 125.227 178.181,125.066 177.858,124.955 177.858 C 124.844 177.858,124.683 177.534,124.596 177.139 C 124.509 176.744,124.339 176.421,124.218 176.421 C 124.097 176.421,123.998 176.152,123.998 175.823 C 123.998 175.494,123.898 175.224,123.777 175.224 C 123.656 175.224,123.486 174.901,123.399 174.506 C 123.312 174.111,123.147 173.788,123.032 173.788 C 122.917 173.788,122.752 173.411,122.665 172.950 C 122.579 172.490,122.421 172.113,122.314 172.113 C 122.208 172.113,122.050 171.789,121.963 171.394 C 121.876 170.999,121.706 170.676,121.585 170.676 C 121.464 170.676,121.364 170.467,121.364 170.212 C 121.364 169.956,121.265 169.686,121.143 169.610 C 121.022 169.535,120.852 169.152,120.765 168.758 C 120.679 168.365,120.518 168.043,120.407 168.043 C 120.296 168.043,120.135 167.720,120.048 167.325 C 119.961 166.930,119.800 166.607,119.689 166.607 C 119.578 166.607,119.417 166.285,119.330 165.891 C 119.244 165.498,119.074 165.115,118.952 165.039 C 118.831 164.964,118.731 164.694,118.731 164.438 C 118.731 164.183,118.624 163.974,118.492 163.974 C 118.360 163.974,118.249 163.839,118.244 163.674 C 118.240 163.510,118.028 162.944,117.774 162.418 C 117.519 161.891,117.308 161.326,117.303 161.161 C 117.299 160.996,117.196 160.862,117.075 160.862 C 116.953 160.862,116.783 160.539,116.697 160.144 C 116.610 159.749,116.440 159.425,116.319 159.425 C 116.197 159.425,116.098 159.156,116.098 158.827 C 116.098 158.498,116.002 158.229,115.885 158.229 C 115.767 158.229,115.604 157.959,115.521 157.630 C 115.310 156.789,110.832 156.674,110.832 157.510 M291.128 158.534 C 290.708 159.369,290.365 160.181,290.365 160.337 C 290.365 160.494,290.262 160.622,290.137 160.622 C 290.011 160.622,289.837 160.999,289.751 161.460 C 289.664 161.921,289.498 162.298,289.381 162.298 C 289.264 162.298,289.168 162.513,289.168 162.777 C 289.168 163.040,289.069 163.256,288.948 163.256 C 288.827 163.256,288.656 163.579,288.570 163.974 C 288.483 164.369,288.321 164.692,288.211 164.692 C 288.100 164.692,287.938 165.015,287.852 165.410 C 287.765 165.805,287.600 166.128,287.484 166.128 C 287.369 166.128,287.204 166.505,287.118 166.966 C 287.031 167.427,286.865 167.804,286.748 167.804 C 286.631 167.804,286.535 167.938,286.534 168.103 C 286.534 168.268,286.211 169.048,285.817 169.838 C 285.423 170.628,285.100 171.409,285.100 171.574 C 285.099 171.738,285.000 171.873,284.878 171.873 C 284.757 171.873,284.587 172.196,284.500 172.591 C 284.414 172.986,284.261 173.309,284.161 173.309 C 284.061 173.309,283.778 173.902,283.532 174.626 C 283.286 175.350,283.008 175.943,282.914 175.943 C 282.820 175.943,282.672 176.266,282.585 176.661 C 282.499 177.056,282.340 177.379,282.234 177.379 C 282.127 177.379,281.971 177.748,281.886 178.199 C 281.802 178.650,281.655 179.054,281.560 179.097 C 281.268 179.228,280.551 180.743,280.551 181.228 C 280.551 181.481,280.451 181.688,280.330 181.688 C 280.209 181.688,280.039 182.011,279.952 182.406 C 279.865 182.801,279.704 183.124,279.593 183.124 C 279.482 183.124,279.321 183.447,279.234 183.842 C 279.147 184.237,278.999 184.560,278.904 184.560 C 278.619 184.560,278.157 186.089,278.157 187.031 L 278.157 187.911 282.705 187.911 C 286.588 187.911,287.253 187.859,287.253 187.552 C 287.253 187.355,287.352 187.193,287.473 187.193 C 287.595 187.193,287.765 186.870,287.852 186.475 C 287.938 186.080,288.100 185.757,288.211 185.757 C 288.321 185.757,288.483 185.434,288.570 185.039 L 288.727 184.321 293.716 184.321 C 299.394 184.321,299.395 184.321,299.601 185.421 C 299.685 185.869,299.838 186.236,299.940 186.236 C 300.043 186.236,300.197 186.613,300.283 187.074 L 300.441 187.911 304.978 187.911 L 309.515 187.911 309.515 186.595 C 309.515 185.871,309.416 185.278,309.295 185.278 C 309.174 185.278,309.004 184.955,308.917 184.560 C 308.830 184.165,308.668 183.842,308.558 183.842 C 308.447 183.842,308.283 183.507,308.193 183.099 C 308.026 182.339,306.908 179.990,306.608 179.770 C 306.516 179.703,306.367 179.353,306.277 178.992 C 306.186 178.631,306.025 178.336,305.920 178.336 C 305.814 178.336,305.655 177.905,305.566 177.379 C 305.477 176.852,305.306 176.421,305.185 176.421 C 305.065 176.421,304.967 176.314,304.967 176.184 C 304.967 175.797,304.150 174.028,303.972 174.028 C 303.882 174.028,303.737 173.704,303.651 173.309 C 303.564 172.914,303.402 172.591,303.291 172.591 C 303.181 172.591,303.017 172.257,302.927 171.848 C 302.764 171.108,301.648 168.750,301.352 168.522 C 301.267 168.456,301.121 168.052,301.028 167.624 C 300.936 167.196,300.765 166.846,300.650 166.846 C 300.535 166.846,300.370 166.469,300.283 166.008 C 300.197 165.548,300.031 165.171,299.914 165.171 C 299.797 165.171,299.701 164.955,299.701 164.692 C 299.701 164.428,299.602 164.213,299.480 164.213 C 299.359 164.213,299.189 163.890,299.102 163.495 C 299.016 163.100,298.854 162.777,298.743 162.777 C 298.633 162.777,298.471 162.454,298.384 162.059 C 298.297 161.664,298.129 161.341,298.009 161.341 C 297.889 161.341,297.723 160.910,297.638 160.383 C 297.554 159.856,297.391 159.425,297.276 159.425 C 297.162 159.425,297.068 159.264,297.068 159.066 C 297.068 158.869,296.975 158.707,296.863 158.707 C 296.750 158.707,296.558 158.357,296.436 157.929 L 296.213 157.151 294.052 157.083 L 291.891 157.015 291.128 158.534 M138.600 172.591 L 138.600 187.672 142.908 187.672 L 147.217 187.672 147.217 183.124 L 147.217 178.576 148.994 178.576 L 150.770 178.576 150.928 179.294 C 151.014 179.689,151.176 180.012,151.287 180.012 C 151.397 180.012,151.557 180.328,151.642 180.714 C 151.727 181.099,151.951 181.544,152.140 181.700 C 152.329 181.857,152.484 182.134,152.484 182.315 C 152.484 182.497,152.591 182.645,152.723 182.645 C 152.855 182.645,152.962 182.861,152.962 183.124 C 152.962 183.387,153.058 183.603,153.176 183.603 C 153.293 183.603,153.463 183.898,153.554 184.259 C 153.644 184.619,153.791 184.969,153.879 185.037 C 154.112 185.214,154.579 186.000,154.981 186.894 L 155.332 187.672 160.012 187.672 L 164.692 187.672 164.692 186.624 C 164.692 185.985,164.552 185.460,164.333 185.278 C 164.135 185.114,163.974 184.856,163.974 184.703 C 163.974 184.551,163.762 184.274,163.504 184.088 C 163.245 183.901,162.967 183.447,162.886 183.077 C 162.805 182.708,162.642 182.406,162.523 182.406 C 162.404 182.406,162.240 182.136,162.157 181.807 C 162.074 181.478,161.916 181.209,161.805 181.209 C 161.693 181.209,161.415 180.805,161.185 180.311 C 160.956 179.817,160.627 179.327,160.456 179.222 C 160.284 179.117,160.144 178.874,160.144 178.683 C 160.144 178.493,160.049 178.336,159.934 178.336 C 159.440 178.336,159.416 176.825,159.902 176.372 C 160.167 176.125,160.383 175.828,160.383 175.710 C 160.383 175.592,160.598 175.428,160.861 175.344 C 161.124 175.261,161.405 174.930,161.486 174.610 C 161.566 174.290,161.716 174.028,161.819 174.028 C 161.922 174.028,162.081 173.732,162.171 173.372 C 162.262 173.011,162.462 172.638,162.616 172.543 C 163.001 172.305,163.011 164.508,162.627 164.264 C 162.479 164.170,162.282 163.743,162.189 163.315 C 162.097 162.887,161.929 162.537,161.816 162.537 C 161.704 162.537,161.552 162.347,161.478 162.115 C 161.297 161.545,159.332 159.425,158.985 159.425 C 158.832 159.425,158.707 159.320,158.707 159.191 C 158.707 159.062,158.438 158.888,158.109 158.806 C 157.780 158.723,157.510 158.567,157.510 158.459 C 157.510 158.351,156.918 158.189,156.194 158.099 C 155.470 158.008,154.877 157.839,154.877 157.722 C 154.877 157.604,151.298 157.510,146.738 157.510 L 138.600 157.510 138.600 172.591 M176.182 172.739 L 176.182 187.968 183.975 187.873 C 189.385 187.807,191.819 187.696,191.934 187.509 C 192.026 187.361,192.612 187.164,193.238 187.070 C 193.863 186.976,194.375 186.813,194.375 186.706 C 194.375 186.600,194.698 186.442,195.093 186.355 C 195.488 186.269,195.811 186.099,195.811 185.977 C 195.811 185.856,195.972 185.757,196.170 185.757 C 196.367 185.757,196.529 185.657,196.529 185.534 C 196.529 185.411,196.768 185.235,197.059 185.142 C 197.569 184.980,199.641 183.079,199.641 182.773 C 199.641 182.691,199.916 182.333,200.252 181.976 C 200.588 181.620,200.924 181.032,201.000 180.670 C 201.075 180.308,201.230 180.012,201.344 180.012 C 201.457 180.012,201.619 179.581,201.703 179.054 C 201.788 178.528,201.950 178.097,202.065 178.097 C 202.180 178.097,202.274 177.783,202.274 177.399 C 202.274 177.015,202.408 176.656,202.571 176.602 C 202.985 176.464,202.976 169.128,202.562 168.714 C 202.403 168.555,202.274 168.178,202.274 167.876 C 202.274 167.573,202.180 167.325,202.065 167.325 C 201.950 167.325,201.788 166.894,201.703 166.367 C 201.619 165.841,201.452 165.410,201.333 165.410 C 201.213 165.410,201.044 165.087,200.958 164.692 C 200.871 164.297,200.724 163.974,200.631 163.974 C 200.538 163.974,200.285 163.677,200.069 163.315 C 199.444 162.269,197.239 160.144,196.779 160.144 C 196.641 160.144,196.529 160.039,196.529 159.910 C 196.529 159.647,194.591 158.707,194.049 158.707 C 193.855 158.707,193.660 158.601,193.617 158.470 C 193.573 158.340,192.864 158.163,192.041 158.077 C 191.218 157.991,190.545 157.829,190.545 157.716 C 190.545 157.603,187.313 157.510,183.363 157.510 L 176.182 157.510 176.182 172.739 M213.525 161.101 L 213.525 164.692 215.200 164.692 L 216.876 164.692 216.876 172.591 L 216.876 180.491 215.081 180.491 L 213.285 180.491 213.285 184.201 L 213.285 187.911 221.305 187.911 L 229.324 187.911 229.324 184.201 L 229.324 180.491 227.409 180.491 L 225.494 180.491 225.494 172.591 L 225.494 164.692 227.289 164.692 L 229.084 164.692 229.084 161.101 L 229.084 157.510 221.305 157.510 L 213.525 157.510 213.525 161.101 M241.771 172.711 L 241.771 187.911 246.320 187.911 L 250.868 187.911 250.868 180.951 L 250.868 173.991 251.583 174.667 C 252.385 175.426,252.626 175.665,253.541 176.604 C 254.096 177.173,257.037 180.033,263.468 186.258 L 265.176 187.911 266.639 187.911 L 268.103 187.911 268.103 172.711 L 268.103 157.510 263.794 157.510 L 259.485 157.510 259.485 164.093 C 259.485 167.714,259.435 170.676,259.374 170.676 C 259.312 170.676,258.236 169.661,256.983 168.419 C 255.729 167.178,254.487 166.093,254.222 166.009 C 253.957 165.925,253.740 165.763,253.740 165.648 C 253.740 165.534,253.420 165.137,253.028 164.767 C 252.636 164.396,251.300 163.124,250.059 161.939 C 248.817 160.754,247.242 159.273,246.557 158.648 L 245.312 157.510 243.542 157.510 L 241.771 157.510 241.771 172.711 M319.569 172.711 L 319.569 187.911 329.270 187.911 L 338.971 187.911 338.905 184.022 L 338.839 180.132 333.633 180.067 L 328.426 180.003 328.426 168.757 L 328.426 157.510 323.998 157.510 L 319.569 157.510 319.569 172.711 M152.484 165.171 C 152.484 165.302,152.650 165.410,152.854 165.410 C 153.353 165.410,154.399 166.568,154.399 167.121 C 154.399 167.365,154.506 167.564,154.638 167.564 C 154.770 167.564,154.877 167.834,154.877 168.163 C 154.877 168.492,154.770 168.761,154.638 168.761 C 154.506 168.761,154.399 169.015,154.399 169.325 C 154.399 170.781,153.387 171.267,150.166 171.359 L 147.217 171.444 147.217 168.187 L 147.217 164.931 149.850 164.931 C 151.446 164.931,152.484 165.025,152.484 165.171 M189.108 165.618 C 189.108 165.732,189.472 165.885,189.917 165.957 C 190.841 166.107,192.763 167.828,193.057 168.768 C 193.159 169.093,193.362 169.437,193.509 169.531 C 193.682 169.642,193.776 170.760,193.776 172.712 C 193.776 174.664,193.682 175.781,193.509 175.892 C 193.362 175.985,193.159 176.332,193.056 176.661 C 192.803 177.477,191.254 178.987,190.469 179.185 C 190.115 179.273,189.826 179.442,189.826 179.559 C 189.826 179.677,188.749 179.773,187.433 179.773 L 185.039 179.773 185.039 172.591 L 185.039 165.410 187.074 165.410 C 188.193 165.410,189.108 165.504,189.108 165.618 M294.315 172.591 C 294.402 172.986,294.558 173.309,294.662 173.309 C 294.767 173.309,294.919 173.731,295.002 174.247 C 295.084 174.762,295.252 175.220,295.374 175.264 C 295.496 175.308,295.669 175.640,295.759 176.002 L 295.923 176.661 293.876 176.661 L 291.830 176.661 292.173 176.002 C 292.362 175.640,292.517 175.156,292.518 174.925 C 292.519 174.695,292.622 174.506,292.748 174.506 C 292.874 174.506,293.047 174.129,293.134 173.668 C 293.220 173.208,293.387 172.831,293.504 172.831 C 293.621 172.831,293.716 172.615,293.716 172.352 C 293.716 171.616,294.138 171.784,294.315 172.591 M113.465 172.472 C 113.465 172.669,113.559 172.831,113.674 172.831 C 113.789 172.831,113.950 173.252,114.032 173.768 C 114.115 174.284,114.293 174.742,114.428 174.787 C 114.563 174.832,114.739 175.272,114.819 175.765 L 114.964 176.661 113.126 176.661 L 111.289 176.661 111.454 175.763 C 111.545 175.269,111.703 174.810,111.805 174.743 C 111.907 174.676,112.065 174.326,112.155 173.965 C 112.246 173.605,112.416 173.309,112.533 173.309 C 112.651 173.309,112.747 173.040,112.747 172.711 C 112.747 172.339,112.883 172.113,113.106 172.113 C 113.303 172.113,113.465 172.274,113.465 172.472 M148.040 208.977 C 148.040 212.466,148.073 213.893,148.114 212.148 C 148.155 210.404,148.155 207.549,148.114 205.805 C 148.073 204.060,148.040 205.488,148.040 208.977 M294.135 204.604 C 294.695 204.654,295.610 204.654,296.170 204.604 C 296.730 204.553,296.272 204.512,295.153 204.512 C 294.034 204.512,293.576 204.553,294.135 204.604 " stroke="none" fill="#040404" fill-rule="evenodd"></path><path id="path3" d="M181.057 31.730 C 172.218 40.597,165.046 47.910,165.118 47.983 C 165.191 48.056,165.131 48.115,164.986 48.115 C 164.840 48.115,159.651 53.205,153.454 59.425 C 147.257 65.646,142.079 70.844,141.947 70.975 C 141.375 71.545,139.651 73.270,139.378 73.546 C 139.214 73.712,136.844 76.084,134.112 78.816 C 131.380 81.548,129.037 83.893,128.905 84.026 C 128.773 84.160,126.269 86.642,123.339 89.542 C 120.011 92.837,118.013 94.991,118.013 95.283 C 118.013 95.740,118.250 95.751,128.184 95.751 L 138.355 95.751 138.418 85.518 L 138.480 75.284 167.684 75.223 C 183.746 75.189,197.045 75.221,197.236 75.294 C 197.469 75.382,187.841 85.168,167.972 105.038 C 151.685 121.325,138.360 134.731,138.360 134.830 C 138.360 134.928,165.075 135.009,197.726 135.009 C 230.377 135.009,257.092 134.927,257.092 134.827 C 257.092 134.727,243.792 121.289,227.537 104.965 L 197.983 75.284 197.974 45.422 C 197.966 17.135,197.943 15.561,197.546 15.585 C 197.316 15.599,189.896 22.864,181.057 31.730 " stroke="none" fill="#df1921" fill-rule="evenodd"></path><path id="path4" d="M138.470 75.464 C 138.407 75.629,138.384 80.180,138.420 85.578 L 138.485 95.392 138.543 85.399 L 138.600 75.406 167.983 75.344 L 197.367 75.282 167.976 75.223 C 144.628 75.177,138.561 75.226,138.470 75.464 M145.887 79.367 C 145.429 79.733,145.430 79.736,145.901 79.519 C 146.164 79.398,146.541 79.239,146.738 79.166 C 147.049 79.051,147.047 79.030,146.724 79.014 C 146.519 79.003,146.142 79.162,145.887 79.367 M148.740 79.345 C 149.249 79.527,150.003 79.980,150.415 80.352 L 151.165 81.029 150.568 80.348 C 149.887 79.573,148.880 78.990,148.246 79.005 C 148.010 79.011,148.232 79.164,148.740 79.345 M144.370 80.559 C 143.961 81.024,143.630 81.536,143.634 81.696 C 143.638 81.856,143.760 81.771,143.905 81.508 C 144.051 81.245,144.444 80.733,144.781 80.371 C 145.117 80.009,145.329 79.713,145.252 79.713 C 145.175 79.713,144.778 80.094,144.370 80.559 M151.406 83.184 C 151.406 84.014,151.485 84.570,151.582 84.418 C 151.679 84.266,151.758 83.710,151.758 83.184 C 151.758 82.657,151.679 82.102,151.582 81.950 C 151.485 81.798,151.406 82.353,151.406 83.184 M150.817 85.441 C 150.397 86.225,149.157 86.941,147.859 87.150 L 146.619 87.349 147.865 87.277 C 148.776 87.225,149.340 87.032,149.957 86.561 C 150.713 85.985,151.493 84.979,151.184 84.979 C 151.118 84.979,150.953 85.187,150.817 85.441 M176.530 96.290 L 175.583 97.307 176.601 96.361 C 177.547 95.481,177.728 95.272,177.547 95.272 C 177.508 95.272,177.050 95.730,176.530 96.290 M174.493 98.324 L 173.668 99.222 174.566 98.397 C 175.402 97.629,175.574 97.427,175.391 97.427 C 175.351 97.427,174.947 97.831,174.493 98.324 M171.860 100.958 L 171.035 101.855 171.933 101.030 C 172.769 100.262,172.941 100.060,172.758 100.060 C 172.718 100.060,172.314 100.464,171.860 100.958 M169.227 103.591 L 168.402 104.488 169.300 103.663 C 170.135 102.896,170.308 102.693,170.125 102.693 C 170.085 102.693,169.681 103.097,169.227 103.591 M166.594 106.224 L 165.769 107.121 166.667 106.297 C 167.502 105.529,167.674 105.326,167.492 105.326 C 167.452 105.326,167.048 105.730,166.594 106.224 M163.961 108.857 L 163.136 109.755 164.034 108.930 C 164.869 108.162,165.041 107.959,164.858 107.959 C 164.818 107.959,164.414 108.363,163.961 108.857 M161.691 111.131 L 160.503 112.388 161.759 111.200 C 162.927 110.096,163.126 109.874,162.947 109.874 C 162.909 109.874,162.344 110.440,161.691 111.131 M159.057 113.764 L 157.870 115.021 159.126 113.833 C 160.294 112.729,160.493 112.507,160.314 112.507 C 160.276 112.507,159.711 113.073,159.057 113.764 M156.779 116.038 L 155.955 116.936 156.852 116.111 C 157.688 115.343,157.860 115.141,157.677 115.141 C 157.637 115.141,157.233 115.545,156.779 116.038 M154.146 118.671 L 153.321 119.569 154.219 118.744 C 155.055 117.976,155.227 117.774,155.044 117.774 C 155.004 117.774,154.600 118.178,154.146 118.671 M251.945 129.503 C 252.459 130.030,252.934 130.461,253.000 130.461 C 253.065 130.461,252.699 130.030,252.184 129.503 C 251.670 128.977,251.195 128.546,251.130 128.546 C 251.064 128.546,251.431 128.977,251.945 129.503 M254.937 132.496 C 255.652 133.220,256.291 133.812,256.357 133.812 C 256.423 133.812,255.892 133.220,255.177 132.496 C 254.461 131.771,253.822 131.179,253.757 131.179 C 253.691 131.179,254.222 131.771,254.937 132.496 M40.934 197.965 C 40.934 198.108,40.016 198.205,38.659 198.205 L 36.385 198.205 36.385 207.070 L 36.385 215.935 38.959 215.867 L 41.532 215.799 41.600 213.226 L 41.668 210.652 42.318 210.656 C 43.139 210.661,43.459 210.872,43.670 211.550 C 43.763 211.846,43.927 212.089,44.036 212.089 C 44.144 212.089,44.307 212.384,44.398 212.744 C 44.488 213.105,44.635 213.455,44.723 213.522 C 44.811 213.590,45.134 214.156,45.439 214.782 L 45.994 215.919 51.228 215.919 L 56.462 215.919 57.001 214.961 L 57.539 214.004 60.451 214.004 L 63.362 214.004 63.794 214.961 L 64.226 215.919 66.823 215.919 L 69.420 215.919 69.420 214.841 C 69.420 214.249,69.317 213.764,69.191 213.764 C 69.065 213.764,68.892 213.387,68.805 212.926 C 68.719 212.466,68.561 212.089,68.454 212.089 C 68.348 212.089,68.190 211.765,68.103 211.370 C 68.016 210.975,67.846 210.652,67.725 210.652 C 67.604 210.652,67.502 210.518,67.499 210.353 C 67.496 210.189,67.175 209.408,66.786 208.618 C 66.397 207.828,66.077 207.047,66.074 206.882 C 66.071 206.718,65.972 206.583,65.855 206.583 C 65.738 206.583,65.572 206.206,65.486 205.745 C 65.399 205.284,65.234 204.907,65.119 204.907 C 65.004 204.907,64.838 204.584,64.752 204.189 C 64.665 203.794,64.495 203.471,64.374 203.471 C 64.252 203.471,64.153 203.262,64.153 203.006 C 64.153 202.751,64.054 202.480,63.932 202.405 C 63.811 202.330,63.641 201.947,63.554 201.553 C 63.468 201.160,63.306 200.838,63.196 200.838 C 63.085 200.838,62.923 200.515,62.837 200.120 C 62.750 199.725,62.580 199.402,62.459 199.402 C 62.337 199.402,62.235 199.213,62.231 198.983 C 62.205 197.596,59.467 197.171,58.762 198.444 C 58.018 199.786,56.732 202.708,56.732 203.057 C 56.732 203.263,56.644 203.467,56.537 203.511 C 56.298 203.608,54.817 206.630,54.817 207.021 C 54.817 207.175,54.718 207.301,54.597 207.301 C 54.476 207.301,54.306 207.623,54.220 208.016 C 54.133 208.410,53.963 208.793,53.842 208.868 C 53.720 208.943,53.621 209.214,53.621 209.470 C 53.621 209.725,53.521 209.934,53.400 209.934 C 53.279 209.934,53.109 210.257,53.022 210.652 C 52.935 211.047,52.765 211.370,52.644 211.370 C 52.523 211.370,52.420 211.505,52.416 211.670 C 52.412 211.834,52.155 212.486,51.845 213.119 L 51.282 214.269 50.776 213.450 C 50.497 212.999,50.269 212.509,50.269 212.360 C 50.269 212.211,50.174 212.089,50.058 212.089 C 49.942 212.089,49.783 211.900,49.706 211.670 C 49.512 211.092,49.021 210.358,48.606 210.028 C 48.314 209.795,48.380 209.633,49.025 208.987 C 49.446 208.566,49.791 208.077,49.791 207.901 C 49.791 207.725,49.925 207.535,50.090 207.481 C 50.641 207.297,50.493 201.833,49.914 200.958 C 48.513 198.840,47.306 198.205,44.681 198.205 C 43.557 198.205,42.571 198.097,42.490 197.965 C 42.408 197.834,42.025 197.726,41.638 197.726 C 41.250 197.726,40.934 197.834,40.934 197.965 M70.616 206.830 L 70.616 215.935 73.190 215.867 L 75.763 215.799 75.883 212.017 L 76.002 208.235 77.010 209.204 C 77.565 209.737,78.072 210.174,78.137 210.174 C 78.201 210.174,79.548 211.466,81.129 213.046 C 83.853 215.767,84.055 215.919,84.970 215.919 L 85.937 215.919 85.937 207.062 L 85.937 198.205 83.303 198.205 L 80.670 198.205 80.670 201.795 C 80.670 205.128,80.470 206.151,80.039 205.027 C 79.963 204.829,79.807 204.668,79.692 204.668 C 79.578 204.668,78.485 203.672,77.264 202.455 C 73.348 198.551,72.329 197.726,71.424 197.726 L 70.616 197.726 70.616 206.830 M92.519 197.965 C 92.438 198.097,92.170 198.205,91.924 198.205 C 91.678 198.205,91.315 198.366,91.117 198.564 C 90.920 198.761,90.643 198.923,90.502 198.923 C 90.361 198.923,90.245 199.023,90.245 199.146 C 90.245 199.269,90.035 199.436,89.779 199.517 C 89.522 199.599,89.238 199.902,89.148 200.192 C 89.058 200.481,88.877 200.787,88.747 200.871 C 88.447 201.063,88.219 204.117,88.423 205.206 C 88.799 207.212,91.134 208.670,94.335 208.897 C 95.509 208.980,96.469 209.127,96.469 209.224 C 96.469 209.321,96.684 209.456,96.947 209.524 C 98.336 209.888,97.435 211.357,95.718 211.526 C 94.516 211.645,93.585 211.248,93.241 210.469 C 93.019 209.968,92.855 209.934,90.667 209.934 L 88.330 209.934 88.332 211.311 C 88.334 213.102,89.535 214.867,91.083 215.354 C 91.346 215.437,91.639 215.625,91.733 215.771 C 91.846 215.948,93.088 216.038,95.392 216.038 C 97.696 216.038,98.938 215.948,99.051 215.771 C 99.145 215.625,99.491 215.423,99.820 215.325 C 100.609 215.088,102.155 213.487,102.351 212.704 C 102.437 212.363,102.602 212.025,102.720 211.952 C 103.015 211.770,102.990 208.737,102.693 208.737 C 102.561 208.737,102.454 208.455,102.454 208.111 C 102.454 207.211,100.751 205.665,99.549 205.473 C 99.040 205.391,98.624 205.246,98.624 205.149 C 98.624 205.052,97.696 204.898,96.562 204.806 C 93.675 204.572,92.664 203.658,94.187 202.661 C 94.812 202.251,96.230 202.129,96.230 202.486 C 96.230 202.602,96.445 202.753,96.709 202.822 C 96.972 202.891,97.187 203.119,97.187 203.329 C 97.187 203.654,97.561 203.710,99.701 203.710 L 102.214 203.710 102.214 202.633 C 102.214 202.041,102.107 201.556,101.975 201.556 C 101.843 201.556,101.735 201.348,101.735 201.094 C 101.735 200.222,99.442 198.205,98.451 198.205 C 98.151 198.205,97.905 198.097,97.905 197.965 C 97.905 197.820,96.873 197.726,95.286 197.726 C 93.799 197.726,92.603 197.829,92.519 197.965 M110.423 198.025 C 110.093 198.458,109.396 200.027,109.396 200.335 C 109.396 200.480,109.300 200.598,109.183 200.598 C 109.066 200.598,108.901 200.968,108.816 201.419 C 108.732 201.870,108.585 202.274,108.490 202.317 C 108.213 202.441,107.481 203.870,107.481 204.286 C 107.481 204.496,107.373 204.668,107.241 204.668 C 107.110 204.668,107.002 204.804,107.002 204.971 C 107.002 205.137,106.786 205.675,106.523 206.167 C 106.260 206.658,106.044 207.276,106.044 207.540 C 106.044 207.803,105.937 208.019,105.805 208.019 C 105.673 208.019,105.566 208.181,105.566 208.378 C 105.566 208.576,105.458 208.737,105.326 208.737 C 105.194 208.737,105.083 208.872,105.079 209.037 C 105.074 209.201,104.862 209.767,104.608 210.293 C 104.354 210.820,104.142 211.385,104.137 211.550 C 104.133 211.715,104.022 211.849,103.890 211.849 C 103.758 211.849,103.651 211.973,103.651 212.125 C 103.651 212.276,103.372 212.969,103.032 213.665 C 102.036 215.699,102.124 215.787,105.242 215.866 L 107.904 215.934 108.374 215.029 L 108.843 214.123 111.872 214.056 C 114.461 213.999,114.901 214.043,114.901 214.356 C 114.901 214.557,115.001 214.722,115.124 214.722 C 115.246 214.722,115.381 214.964,115.423 215.260 C 115.497 215.778,115.606 215.802,118.193 215.867 L 120.886 215.934 120.886 215.066 C 120.886 214.588,120.732 213.911,120.544 213.562 C 119.836 212.242,118.731 209.766,118.731 209.496 C 118.731 209.342,118.624 209.216,118.492 209.216 C 118.360 209.216,118.253 209.061,118.253 208.872 C 118.253 208.682,117.876 207.793,117.416 206.897 C 116.956 206.000,116.579 205.132,116.578 204.967 C 116.577 204.803,116.469 204.668,116.338 204.668 C 116.206 204.668,116.098 204.459,116.098 204.203 C 116.098 203.948,115.999 203.677,115.877 203.602 C 115.756 203.527,115.586 203.144,115.499 202.750 C 115.413 202.357,115.243 202.035,115.122 202.035 C 115.000 202.035,114.901 201.871,114.901 201.671 C 114.901 201.471,114.578 200.702,114.183 199.962 C 113.788 199.222,113.465 198.481,113.465 198.316 C 113.465 197.699,110.861 197.450,110.423 198.025 M127.828 197.933 C 127.828 198.047,127.345 198.206,126.756 198.287 C 126.166 198.367,125.447 198.570,125.158 198.738 C 123.791 199.529,121.843 201.399,121.843 201.919 C 121.843 202.114,121.757 202.274,121.651 202.274 C 121.545 202.274,121.265 202.814,121.028 203.474 C 120.278 205.559,120.750 211.598,121.664 211.608 C 121.762 211.609,121.843 211.762,121.843 211.949 C 121.843 212.790,125.095 215.440,126.127 215.440 C 126.382 215.440,126.635 215.574,126.690 215.737 C 126.762 215.952,127.604 216.034,129.743 216.034 C 131.881 216.034,132.724 215.952,132.795 215.737 C 132.850 215.574,133.057 215.440,133.257 215.440 C 134.848 215.440,137.858 212.057,137.876 210.248 C 137.879 209.959,137.989 209.656,138.121 209.575 C 139.045 209.004,138.283 208.737,135.727 208.737 C 133.904 208.737,133.094 208.822,133.094 209.012 C 133.094 209.472,131.475 210.892,130.951 210.892 C 130.682 210.892,130.461 210.999,130.461 211.131 C 130.461 211.485,129.776 211.423,128.561 210.959 C 127.486 210.548,126.631 209.891,126.631 209.475 C 126.631 209.355,126.496 209.211,126.332 209.156 C 125.800 208.979,125.934 205.156,126.497 204.415 C 127.960 202.491,132.615 202.191,132.615 204.020 C 132.615 204.698,133.373 204.907,135.830 204.907 C 137.920 204.907,138.360 204.845,138.360 204.548 C 138.360 204.351,138.267 204.189,138.152 204.189 C 138.038 204.189,137.883 203.734,137.809 203.177 C 137.734 202.620,137.558 202.126,137.418 202.080 C 137.278 202.033,137.163 201.864,137.163 201.704 C 137.163 201.442,135.751 199.889,134.961 199.282 C 134.298 198.772,132.806 198.205,132.128 198.205 C 131.738 198.205,131.418 198.097,131.418 197.965 C 131.418 197.827,130.660 197.726,129.623 197.726 C 128.636 197.726,127.828 197.819,127.828 197.933 M170.305 197.925 C 170.180 198.034,169.646 198.246,169.119 198.396 C 168.591 198.545,167.909 198.860,167.603 199.094 C 166.473 199.960,165.410 201.022,165.410 201.285 C 165.410 201.434,165.325 201.556,165.220 201.556 C 163.925 201.556,163.493 209.092,164.654 211.450 C 166.351 214.896,168.425 216.015,173.139 216.029 C 175.314 216.035,176.497 215.947,176.610 215.771 C 176.704 215.625,177.050 215.421,177.379 215.318 C 177.708 215.216,178.151 214.932,178.364 214.687 C 178.577 214.443,178.853 214.243,178.978 214.243 C 179.646 214.243,181.142 211.992,181.354 210.669 C 181.439 210.133,181.603 209.695,181.718 209.695 C 181.993 209.695,181.990 204.017,181.715 203.847 C 181.598 203.775,181.432 203.337,181.345 202.875 C 181.258 202.413,181.092 202.035,180.975 202.035 C 180.858 202.035,180.686 201.792,180.593 201.496 C 180.411 200.917,178.932 199.402,178.549 199.402 C 178.421 199.402,178.095 199.195,177.824 198.943 C 176.751 197.943,171.151 197.185,170.305 197.925 M184.199 198.265 C 184.127 198.561,184.098 202.627,184.134 207.301 L 184.201 215.799 186.774 215.867 L 189.348 215.935 189.348 211.757 L 189.348 207.579 193.505 211.749 C 197.550 215.805,197.690 215.919,198.652 215.919 L 199.641 215.919 199.641 207.062 L 199.641 198.205 197.008 198.205 L 194.375 198.205 194.375 201.795 C 194.375 205.706,194.375 205.706,193.310 204.687 C 192.908 204.303,191.519 202.983,190.224 201.755 C 188.929 200.526,187.448 199.117,186.932 198.624 C 185.788 197.526,184.422 197.347,184.199 198.265 M208.558 197.884 C 208.326 197.978,208.259 200.021,208.259 206.962 L 208.259 215.919 210.892 215.919 L 213.525 215.919 213.525 212.328 C 213.525 208.475,213.583 208.317,214.549 209.530 C 216.604 212.107,217.334 212.261,219.106 210.489 C 219.723 209.872,220.227 209.279,220.227 209.172 C 220.227 209.065,220.335 208.977,220.467 208.977 C 220.615 208.977,220.706 210.293,220.706 212.448 L 220.706 215.919 223.342 215.919 L 225.978 215.919 225.916 206.882 L 225.853 197.846 224.932 197.770 C 223.915 197.686,224.060 197.561,219.868 202.160 C 217.440 204.824,217.357 204.907,217.141 204.907 C 217.043 204.907,216.647 204.506,216.261 204.017 C 215.875 203.527,214.789 202.315,213.847 201.324 C 212.906 200.332,211.790 199.117,211.369 198.624 C 210.615 197.740,209.586 197.469,208.558 197.884 M234.638 198.013 C 234.480 198.171,234.351 198.548,234.351 198.851 C 234.351 199.154,234.243 199.402,234.111 199.402 C 233.980 199.402,233.872 199.563,233.872 199.761 C 233.872 199.958,233.773 200.120,233.652 200.120 C 233.530 200.120,233.360 200.443,233.273 200.838 C 233.187 201.233,233.017 201.556,232.895 201.556 C 232.774 201.556,232.671 201.691,232.667 201.855 C 232.662 202.020,232.451 202.585,232.196 203.112 C 231.942 203.639,231.730 204.204,231.726 204.369 C 231.721 204.533,231.610 204.668,231.478 204.668 C 231.346 204.668,231.235 204.856,231.231 205.087 C 231.227 205.317,231.065 205.715,230.872 205.970 C 230.679 206.226,230.521 206.630,230.521 206.868 C 230.521 207.106,230.421 207.301,230.300 207.301 C 230.179 207.301,230.009 207.624,229.922 208.019 C 229.835 208.414,229.665 208.737,229.544 208.737 C 229.423 208.737,229.321 208.872,229.318 209.037 C 229.315 209.201,228.995 209.982,228.606 210.772 C 228.217 211.562,227.896 212.343,227.893 212.507 C 227.890 212.672,227.788 212.807,227.667 212.807 C 227.546 212.807,227.376 213.129,227.290 213.522 C 227.203 213.916,227.033 214.299,226.912 214.374 C 226.790 214.449,226.691 214.831,226.691 215.222 L 226.691 215.934 229.484 215.866 L 232.277 215.799 232.512 215.081 C 232.850 214.047,232.973 214.011,236.206 214.007 C 238.654 214.004,239.138 214.063,239.138 214.363 C 239.138 214.560,239.234 214.722,239.352 214.722 C 239.469 214.722,239.633 214.991,239.715 215.320 C 239.864 215.914,239.888 215.919,242.525 215.919 L 245.184 215.919 245.064 214.672 C 244.998 213.986,244.823 213.385,244.674 213.335 C 244.526 213.286,244.405 213.093,244.405 212.906 C 244.405 212.720,244.297 212.567,244.165 212.567 C 244.034 212.567,243.926 212.342,243.926 212.066 C 243.926 211.790,243.772 211.278,243.585 210.929 C 243.397 210.579,242.892 209.539,242.464 208.618 C 242.035 207.696,241.596 206.906,241.488 206.862 C 241.381 206.818,241.293 206.614,241.293 206.409 C 241.293 206.203,240.916 205.251,240.455 204.293 C 239.994 203.335,239.617 202.435,239.617 202.293 C 239.617 202.151,239.509 202.035,239.378 202.035 C 239.246 202.035,239.138 201.819,239.138 201.556 C 239.138 201.293,239.031 201.077,238.899 201.077 C 238.767 201.077,238.659 200.905,238.659 200.695 C 238.659 200.485,238.499 200.027,238.302 199.678 C 238.105 199.328,237.839 198.746,237.710 198.384 C 237.449 197.656,235.260 197.391,234.638 198.013 M246.106 198.053 C 245.912 198.287,245.853 200.861,245.898 207.090 L 245.961 215.799 248.528 215.867 L 251.096 215.935 251.161 211.797 L 251.227 207.660 254.854 211.251 C 259.659 216.007,259.548 215.919,260.684 215.919 L 261.640 215.919 261.640 207.062 L 261.640 198.205 259.013 198.205 L 256.386 198.205 256.320 201.938 L 256.254 205.672 253.027 202.537 C 251.253 200.812,249.664 199.402,249.497 199.402 C 249.329 199.402,249.192 199.298,249.192 199.172 C 249.192 198.190,246.733 197.299,246.106 198.053 M270.345 198.025 C 270.229 198.190,269.934 198.755,269.689 199.282 C 269.444 199.808,269.095 200.525,268.913 200.875 C 268.731 201.224,268.582 201.682,268.582 201.892 C 268.582 202.102,268.499 202.274,268.399 202.274 C 268.207 202.274,267.385 204.021,267.385 204.430 C 267.385 204.561,267.277 204.668,267.145 204.668 C 267.014 204.668,266.906 204.789,266.906 204.938 C 266.906 205.086,266.570 205.921,266.159 206.793 C 265.748 207.665,265.236 208.755,265.022 209.216 C 264.807 209.677,264.555 210.089,264.460 210.131 C 264.365 210.174,264.219 210.578,264.134 211.029 C 264.049 211.480,263.885 211.849,263.767 211.849 C 263.650 211.849,263.555 211.985,263.555 212.150 C 263.555 212.316,263.279 212.970,262.942 213.603 C 261.857 215.640,262.010 215.788,265.290 215.866 C 267.713 215.924,268.103 215.882,268.103 215.559 C 268.103 214.256,268.701 214.004,271.782 214.004 L 274.689 214.004 275.027 214.782 C 275.505 215.879,275.599 215.911,278.367 215.915 L 280.851 215.919 280.731 214.672 C 280.665 213.986,280.490 213.385,280.342 213.335 C 280.193 213.286,280.068 213.120,280.064 212.966 C 280.059 212.813,279.847 212.256,279.593 211.730 C 279.339 211.203,279.127 210.637,279.122 210.473 C 279.118 210.308,279.007 210.174,278.875 210.174 C 278.743 210.174,278.636 210.012,278.636 209.814 C 278.636 209.617,278.528 209.455,278.396 209.455 C 278.265 209.455,278.153 209.267,278.149 209.037 C 278.144 208.806,277.932 208.187,277.678 207.660 C 277.424 207.133,277.212 206.568,277.207 206.403 C 277.203 206.239,277.100 206.104,276.979 206.104 C 276.858 206.104,276.688 205.781,276.601 205.386 C 276.514 204.991,276.344 204.668,276.223 204.668 C 276.102 204.668,276.002 204.452,276.002 204.189 C 276.002 203.926,275.907 203.710,275.790 203.710 C 275.673 203.710,275.506 203.333,275.420 202.873 C 275.333 202.412,275.160 202.035,275.034 202.035 C 274.908 202.035,274.802 201.900,274.797 201.735 C 274.793 201.571,274.581 201.005,274.327 200.479 C 274.072 199.952,273.861 199.387,273.856 199.222 C 273.852 199.057,273.740 198.923,273.609 198.923 C 273.477 198.923,273.369 198.719,273.369 198.470 C 273.369 197.724,270.821 197.349,270.345 198.025 M287.390 197.938 C 287.317 198.055,286.872 198.223,286.401 198.311 C 284.781 198.615,281.747 200.995,281.747 201.961 C 281.747 202.133,281.663 202.274,281.561 202.274 C 281.308 202.274,280.773 203.728,280.931 203.985 C 281.001 204.097,280.944 204.189,280.804 204.189 C 280.364 204.189,280.484 209.156,280.956 210.473 C 281.180 211.098,281.450 211.610,281.555 211.610 C 281.661 211.610,281.747 211.770,281.747 211.966 C 281.747 212.466,283.863 214.524,284.863 214.996 C 285.322 215.212,286.011 215.535,286.394 215.714 C 287.243 216.109,292.702 216.151,292.955 215.764 C 293.044 215.626,293.401 215.444,293.746 215.360 C 294.428 215.193,297.068 212.812,297.068 212.364 C 297.068 212.212,297.169 212.089,297.292 212.089 C 297.416 212.089,297.591 211.577,297.682 210.952 C 297.772 210.326,297.945 209.690,298.066 209.538 C 298.187 209.386,298.254 208.416,298.215 207.384 L 298.145 205.506 293.716 205.506 L 289.288 205.506 289.218 207.520 C 289.136 209.870,289.180 209.925,291.136 209.931 C 292.643 209.935,292.904 210.477,291.542 210.776 C 291.158 210.861,290.844 211.029,290.844 211.150 C 290.844 211.271,290.359 211.370,289.767 211.370 C 289.174 211.370,288.689 211.263,288.689 211.131 C 288.689 210.999,288.489 210.892,288.244 210.892 C 287.999 210.892,287.380 210.496,286.868 210.013 L 285.937 209.135 285.937 206.944 L 285.937 204.753 286.894 203.874 C 288.493 202.405,291.040 202.322,292.269 203.698 C 292.944 204.454,292.967 204.460,295.308 204.474 L 297.666 204.488 297.623 203.327 C 297.599 202.688,297.464 202.127,297.323 202.080 C 297.183 202.033,297.068 201.892,297.068 201.765 C 297.068 201.258,294.716 198.923,294.205 198.923 C 294.068 198.923,293.956 198.820,293.956 198.694 C 293.956 198.569,293.552 198.401,293.058 198.322 C 292.564 198.243,291.973 198.077,291.745 197.952 C 291.219 197.666,287.565 197.654,287.390 197.938 M314.223 197.885 C 314.135 197.973,314.063 202.067,314.063 206.982 L 314.063 215.919 316.697 215.919 L 319.330 215.919 319.330 212.448 C 319.330 208.815,319.388 208.617,320.168 209.607 C 322.179 212.161,323.114 212.259,325.118 210.128 L 326.511 208.645 326.511 212.282 L 326.511 215.919 329.144 215.919 L 331.777 215.919 331.777 207.201 C 331.777 202.406,331.712 198.313,331.632 198.105 C 331.397 197.491,329.852 197.615,329.142 198.304 C 328.001 199.412,325.793 201.777,325.793 201.892 C 325.793 202.045,322.981 204.907,322.831 204.907 C 322.671 204.907,322.277 204.491,320.886 202.852 C 320.227 202.077,319.042 200.772,318.253 199.952 C 317.463 199.132,316.677 198.295,316.508 198.093 C 316.199 197.726,314.534 197.575,314.223 197.885 M348.643 198.026 C 348.580 198.191,348.556 202.258,348.591 207.063 L 348.654 215.799 351.221 215.867 L 353.789 215.935 353.854 211.826 L 353.920 207.718 357.989 211.814 C 361.978 215.829,362.079 215.911,363.076 215.915 L 364.093 215.919 364.093 207.062 L 364.093 198.205 361.460 198.205 L 358.827 198.205 358.827 201.795 C 358.827 203.770,358.765 205.386,358.690 205.386 C 358.539 205.386,356.823 203.821,354.755 201.795 C 350.661 197.786,349.104 196.825,348.643 198.026 M21.305 200.479 L 21.305 202.753 23.339 202.753 L 25.374 202.753 25.374 209.336 L 25.374 215.919 27.887 215.919 L 30.401 215.919 30.401 209.336 L 30.401 202.753 32.555 202.753 L 34.710 202.753 34.710 200.479 L 34.710 198.205 28.007 198.205 L 21.305 198.205 21.305 200.479 M138.600 200.479 L 138.600 202.753 140.754 202.753 L 142.908 202.753 142.908 209.344 L 142.908 215.935 145.444 215.867 L 147.980 215.799 147.948 209.276 L 147.915 202.753 150.079 202.753 L 152.244 202.753 152.244 200.479 L 152.244 198.205 145.422 198.205 L 138.600 198.205 138.600 200.479 M153.441 200.239 L 153.441 202.274 154.279 202.274 L 155.117 202.274 155.117 206.942 L 155.117 211.610 154.039 211.610 L 152.962 211.610 152.962 213.764 L 152.962 215.919 157.879 215.919 L 162.795 215.919 162.726 213.824 L 162.657 211.730 161.520 211.657 L 160.383 211.584 160.383 206.929 L 160.383 202.274 161.341 202.274 L 162.298 202.274 162.298 200.239 L 162.298 198.205 157.870 198.205 L 153.441 198.205 153.441 200.239 M300.180 207.062 L 300.180 215.919 305.925 215.919 L 311.670 215.919 311.670 213.405 L 311.670 210.892 308.558 210.892 L 305.446 210.892 305.446 209.934 L 305.446 208.977 308.199 208.977 L 310.952 208.977 310.952 206.583 L 310.952 204.189 308.199 204.189 L 305.446 204.189 305.446 203.471 L 305.446 202.753 308.438 202.753 L 311.430 202.753 311.430 200.479 L 311.430 198.205 305.805 198.205 L 300.180 198.205 300.180 207.062 M334.650 207.062 L 334.650 215.919 340.515 215.919 L 346.379 215.919 346.379 213.550 C 346.379 210.717,346.616 210.892,342.769 210.892 L 339.916 210.892 339.916 209.934 L 339.916 208.977 342.789 208.977 L 345.661 208.977 345.661 206.583 L 345.661 204.189 342.789 204.189 L 339.916 204.189 339.916 203.471 L 339.916 202.753 342.908 202.753 L 345.901 202.753 345.901 200.479 L 345.901 198.205 340.275 198.205 L 334.650 198.205 334.650 207.062 M365.580 200.419 L 365.649 202.633 367.864 202.702 L 370.078 202.771 370.078 209.345 L 370.078 215.919 372.472 215.919 L 374.865 215.919 374.865 209.336 L 374.865 202.753 377.020 202.753 L 379.174 202.753 379.174 200.479 L 379.174 198.205 372.343 198.205 L 365.512 198.205 365.580 200.419 M45.315 203.655 L 45.771 204.438 45.135 205.271 C 44.535 206.058,44.420 206.104,43.076 206.104 L 41.652 206.104 41.652 204.418 L 41.652 202.731 43.255 202.802 C 44.783 202.869,44.880 202.909,45.315 203.655 M174.889 203.341 C 175.092 203.544,175.339 203.710,175.437 203.710 C 176.451 203.710,177.068 207.887,176.242 209.161 C 175.321 210.580,172.930 211.805,172.304 211.179 C 172.146 211.021,171.831 210.892,171.603 210.892 C 169.278 210.892,168.351 205.995,170.281 203.911 C 171.387 202.715,173.947 202.399,174.889 203.341 M112.148 207.540 C 112.235 207.935,112.405 208.259,112.527 208.259 C 112.648 208.259,112.747 208.528,112.747 208.857 C 112.747 209.396,112.651 209.455,111.789 209.455 C 110.684 209.455,110.706 209.515,111.247 207.991 C 111.727 206.640,111.928 206.539,112.148 207.540 M272.053 207.540 C 272.139 207.935,272.297 208.259,272.403 208.259 C 272.509 208.259,272.647 208.528,272.710 208.857 C 272.818 209.421,272.765 209.455,271.780 209.455 C 270.760 209.455,270.267 208.816,270.957 208.390 C 271.079 208.314,271.249 207.931,271.335 207.538 C 271.536 206.622,271.851 206.623,272.053 207.540 M61.030 208.169 C 61.300 208.778,61.520 209.317,61.520 209.366 C 61.520 209.415,61.033 209.455,60.438 209.455 C 59.407 209.455,58.990 208.410,59.881 208.059 C 59.993 208.015,60.084 207.773,60.084 207.520 C 60.084 206.721,60.523 207.023,61.030 208.169 M236.402 207.600 C 236.494 207.896,236.648 208.193,236.744 208.259 C 237.535 208.800,237.216 209.455,236.162 209.455 C 234.937 209.455,234.899 209.373,235.484 208.021 C 235.958 206.927,236.162 206.834,236.402 207.600 " stroke="none" fill="#7b7464" fill-rule="evenodd"></path></g></svg>